<mxfile host="app.diagrams.net" modified="2023-12-09T23:17:34.413Z" agent="Mozilla/5.0 (Windows NT 10.0; Win64; x64) AppleWebKit/537.36 (KHTML, like Gecko) Chrome/121.0.0.0 Safari/537.36" etag="lqLj8yXd5S5vl-YfpBzF" version="22.1.7" type="device">
  <diagram id="C5RBs43oDa-KdzZeNtuy" name="Page-1">
    <mxGraphModel dx="1793" dy="933" grid="1" gridSize="10" guides="1" tooltips="1" connect="1" arrows="1" fold="1" page="1" pageScale="1" pageWidth="1169" pageHeight="827" math="0" shadow="0">
      <root>
        <mxCell id="WIyWlLk6GJQsqaUBKTNV-0" />
        <mxCell id="WIyWlLk6GJQsqaUBKTNV-1" parent="WIyWlLk6GJQsqaUBKTNV-0" />
        <mxCell id="WIyWlLk6GJQsqaUBKTNV-2" value="" style="rounded=0;html=1;jettySize=auto;orthogonalLoop=1;fontSize=11;endArrow=block;endFill=0;endSize=8;strokeWidth=1;shadow=0;labelBackgroundColor=none;edgeStyle=orthogonalEdgeStyle;exitX=0.5;exitY=1;exitDx=0;exitDy=0;entryX=0.5;entryY=0;entryDx=0;entryDy=0;" parent="WIyWlLk6GJQsqaUBKTNV-1" source="OhfcnGThwX1pYeev4To1-0" target="OhfcnGThwX1pYeev4To1-2" edge="1">
          <mxGeometry relative="1" as="geometry">
            <mxPoint x="149.92" y="120" as="sourcePoint" />
            <mxPoint x="169.92" y="150" as="targetPoint" />
          </mxGeometry>
        </mxCell>
        <mxCell id="OhfcnGThwX1pYeev4To1-0" value="Start" style="ellipse;whiteSpace=wrap;html=1;" parent="WIyWlLk6GJQsqaUBKTNV-1" vertex="1">
          <mxGeometry x="112.42" y="50" width="75" height="50" as="geometry" />
        </mxCell>
        <mxCell id="OhfcnGThwX1pYeev4To1-4" style="edgeStyle=orthogonalEdgeStyle;rounded=0;orthogonalLoop=1;jettySize=auto;html=1;exitX=1;exitY=0.5;exitDx=0;exitDy=0;labelBackgroundColor=none;endArrow=block;endFill=0;endSize=8;strokeWidth=1;shadow=0;entryX=0;entryY=0.5;entryDx=0;entryDy=0;" parent="WIyWlLk6GJQsqaUBKTNV-1" source="OhfcnGThwX1pYeev4To1-2" target="OhfcnGThwX1pYeev4To1-7" edge="1">
          <mxGeometry relative="1" as="geometry">
            <mxPoint x="299.92" y="200.28571428571433" as="targetPoint" />
          </mxGeometry>
        </mxCell>
        <mxCell id="OhfcnGThwX1pYeev4To1-6" value="Yes" style="edgeLabel;html=1;align=center;verticalAlign=middle;resizable=0;points=[];fontSize=11;fontFamily=Helvetica;fontColor=default;" parent="OhfcnGThwX1pYeev4To1-4" vertex="1" connectable="0">
          <mxGeometry x="-0.2408" y="-1" relative="1" as="geometry">
            <mxPoint x="6" y="-11" as="offset" />
          </mxGeometry>
        </mxCell>
        <mxCell id="OhfcnGThwX1pYeev4To1-9" value="" style="edgeStyle=orthogonalEdgeStyle;shape=connector;rounded=0;orthogonalLoop=1;jettySize=auto;html=1;shadow=0;labelBackgroundColor=none;strokeColor=default;strokeWidth=1;align=center;verticalAlign=middle;fontFamily=Helvetica;fontSize=11;fontColor=default;endArrow=block;endFill=0;endSize=8;" parent="WIyWlLk6GJQsqaUBKTNV-1" source="OhfcnGThwX1pYeev4To1-2" target="OhfcnGThwX1pYeev4To1-8" edge="1">
          <mxGeometry relative="1" as="geometry" />
        </mxCell>
        <mxCell id="OhfcnGThwX1pYeev4To1-20" value="No" style="edgeLabel;html=1;align=center;verticalAlign=middle;resizable=0;points=[];fontSize=11;fontFamily=Helvetica;fontColor=default;" parent="OhfcnGThwX1pYeev4To1-9" vertex="1" connectable="0">
          <mxGeometry x="-0.3722" y="-2" relative="1" as="geometry">
            <mxPoint x="-8" as="offset" />
          </mxGeometry>
        </mxCell>
        <mxCell id="OhfcnGThwX1pYeev4To1-2" value="&lt;p style=&quot;line-height: 120%;&quot;&gt;&lt;span style=&quot;background-color: initial;&quot;&gt;Have all tiles been allocated?&amp;nbsp;&lt;/span&gt;&lt;br&gt;&lt;/p&gt;" style="rhombus;whiteSpace=wrap;html=1;" parent="WIyWlLk6GJQsqaUBKTNV-1" vertex="1">
          <mxGeometry x="84.92" y="150" width="130" height="100" as="geometry" />
        </mxCell>
        <mxCell id="OhfcnGThwX1pYeev4To1-7" value="End" style="ellipse;whiteSpace=wrap;html=1;fontFamily=Helvetica;fontSize=11;fontColor=default;" parent="WIyWlLk6GJQsqaUBKTNV-1" vertex="1">
          <mxGeometry x="289.92" y="170" width="90" height="60" as="geometry" />
        </mxCell>
        <mxCell id="OhfcnGThwX1pYeev4To1-11" value="" style="edgeStyle=orthogonalEdgeStyle;shape=connector;rounded=0;orthogonalLoop=1;jettySize=auto;html=1;shadow=0;labelBackgroundColor=none;strokeColor=default;strokeWidth=1;align=center;verticalAlign=middle;fontFamily=Helvetica;fontSize=11;fontColor=default;endArrow=block;endFill=0;endSize=8;" parent="WIyWlLk6GJQsqaUBKTNV-1" source="OhfcnGThwX1pYeev4To1-8" target="OhfcnGThwX1pYeev4To1-10" edge="1">
          <mxGeometry relative="1" as="geometry" />
        </mxCell>
        <mxCell id="OhfcnGThwX1pYeev4To1-8" value="Put random&amp;nbsp;unallocated tile in working_list and mark it as allocated" style="whiteSpace=wrap;html=1;" parent="WIyWlLk6GJQsqaUBKTNV-1" vertex="1">
          <mxGeometry x="89.92" y="310" width="120" height="60" as="geometry" />
        </mxCell>
        <mxCell id="OhfcnGThwX1pYeev4To1-13" value="" style="edgeStyle=orthogonalEdgeStyle;shape=connector;rounded=0;orthogonalLoop=1;jettySize=auto;html=1;shadow=0;labelBackgroundColor=none;strokeColor=default;strokeWidth=1;align=center;verticalAlign=middle;fontFamily=Helvetica;fontSize=11;fontColor=default;endArrow=block;endFill=0;endSize=8;" parent="WIyWlLk6GJQsqaUBKTNV-1" source="OhfcnGThwX1pYeev4To1-10" target="OhfcnGThwX1pYeev4To1-12" edge="1">
          <mxGeometry relative="1" as="geometry" />
        </mxCell>
        <mxCell id="OhfcnGThwX1pYeev4To1-10" value="Set attempts to random number between 1 and 5" style="whiteSpace=wrap;html=1;" parent="WIyWlLk6GJQsqaUBKTNV-1" vertex="1">
          <mxGeometry x="89.92" y="400" width="120" height="60" as="geometry" />
        </mxCell>
        <mxCell id="OhfcnGThwX1pYeev4To1-15" value="" style="edgeStyle=orthogonalEdgeStyle;shape=connector;rounded=0;orthogonalLoop=1;jettySize=auto;html=1;shadow=0;labelBackgroundColor=none;strokeColor=default;strokeWidth=1;align=center;verticalAlign=middle;fontFamily=Helvetica;fontSize=11;fontColor=default;endArrow=block;endFill=0;endSize=8;" parent="WIyWlLk6GJQsqaUBKTNV-1" source="OhfcnGThwX1pYeev4To1-12" target="OhfcnGThwX1pYeev4To1-14" edge="1">
          <mxGeometry relative="1" as="geometry" />
        </mxCell>
        <mxCell id="OhfcnGThwX1pYeev4To1-16" value="No" style="edgeLabel;html=1;align=center;verticalAlign=middle;resizable=0;points=[];fontSize=11;fontFamily=Helvetica;fontColor=default;" parent="OhfcnGThwX1pYeev4To1-15" vertex="1" connectable="0">
          <mxGeometry x="-0.3143" y="-1" relative="1" as="geometry">
            <mxPoint x="-9" as="offset" />
          </mxGeometry>
        </mxCell>
        <mxCell id="OhfcnGThwX1pYeev4To1-22" value="" style="edgeStyle=orthogonalEdgeStyle;shape=connector;rounded=0;orthogonalLoop=1;jettySize=auto;html=1;shadow=0;labelBackgroundColor=none;strokeColor=default;strokeWidth=1;align=center;verticalAlign=middle;fontFamily=Helvetica;fontSize=11;fontColor=default;endArrow=block;endFill=0;endSize=8;" parent="WIyWlLk6GJQsqaUBKTNV-1" source="OhfcnGThwX1pYeev4To1-12" target="OhfcnGThwX1pYeev4To1-21" edge="1">
          <mxGeometry relative="1" as="geometry" />
        </mxCell>
        <mxCell id="OhfcnGThwX1pYeev4To1-23" value="Yes" style="edgeLabel;html=1;align=center;verticalAlign=middle;resizable=0;points=[];fontSize=11;fontFamily=Helvetica;fontColor=default;" parent="OhfcnGThwX1pYeev4To1-22" vertex="1" connectable="0">
          <mxGeometry x="-0.3611" y="2" relative="1" as="geometry">
            <mxPoint x="1" y="-8" as="offset" />
          </mxGeometry>
        </mxCell>
        <mxCell id="OhfcnGThwX1pYeev4To1-12" value="attempts &amp;gt; 0" style="rhombus;whiteSpace=wrap;html=1;" parent="WIyWlLk6GJQsqaUBKTNV-1" vertex="1">
          <mxGeometry x="109.92" y="530" width="80" height="80" as="geometry" />
        </mxCell>
        <mxCell id="OhfcnGThwX1pYeev4To1-19" style="edgeStyle=orthogonalEdgeStyle;shape=connector;rounded=0;orthogonalLoop=1;jettySize=auto;html=1;shadow=0;labelBackgroundColor=none;strokeColor=default;strokeWidth=1;align=center;verticalAlign=middle;fontFamily=Helvetica;fontSize=11;fontColor=default;endArrow=block;endFill=0;endSize=8;entryX=0;entryY=0.5;entryDx=0;entryDy=0;" parent="WIyWlLk6GJQsqaUBKTNV-1" source="OhfcnGThwX1pYeev4To1-14" target="OhfcnGThwX1pYeev4To1-2" edge="1">
          <mxGeometry relative="1" as="geometry">
            <mxPoint x="59.92" y="200" as="targetPoint" />
            <Array as="points">
              <mxPoint x="9.92" y="730" />
              <mxPoint x="9.92" y="200" />
            </Array>
          </mxGeometry>
        </mxCell>
        <mxCell id="OhfcnGThwX1pYeev4To1-14" value="Append working_list to list of block arrangements" style="whiteSpace=wrap;html=1;" parent="WIyWlLk6GJQsqaUBKTNV-1" vertex="1">
          <mxGeometry x="89.92" y="700" width="120" height="60" as="geometry" />
        </mxCell>
        <mxCell id="OhfcnGThwX1pYeev4To1-26" value="" style="edgeStyle=orthogonalEdgeStyle;shape=connector;rounded=0;orthogonalLoop=1;jettySize=auto;html=1;shadow=0;labelBackgroundColor=none;strokeColor=default;strokeWidth=1;align=center;verticalAlign=middle;fontFamily=Helvetica;fontSize=11;fontColor=default;endArrow=block;endFill=0;endSize=8;exitX=1;exitY=0.5;exitDx=0;exitDy=0;" parent="WIyWlLk6GJQsqaUBKTNV-1" source="OhfcnGThwX1pYeev4To1-41" target="OhfcnGThwX1pYeev4To1-25" edge="1">
          <mxGeometry relative="1" as="geometry">
            <mxPoint x="569.92" y="570" as="sourcePoint" />
          </mxGeometry>
        </mxCell>
        <mxCell id="OhfcnGThwX1pYeev4To1-42" value="Yes" style="edgeLabel;html=1;align=center;verticalAlign=middle;resizable=0;points=[];fontSize=11;fontFamily=Helvetica;fontColor=default;" parent="OhfcnGThwX1pYeev4To1-26" vertex="1" connectable="0">
          <mxGeometry x="-0.0889" y="3" relative="1" as="geometry">
            <mxPoint y="-7" as="offset" />
          </mxGeometry>
        </mxCell>
        <mxCell id="OhfcnGThwX1pYeev4To1-40" value="" style="edgeStyle=orthogonalEdgeStyle;shape=connector;rounded=0;orthogonalLoop=1;jettySize=auto;html=1;shadow=0;labelBackgroundColor=none;strokeColor=default;strokeWidth=1;align=center;verticalAlign=middle;fontFamily=Helvetica;fontSize=11;fontColor=default;endArrow=block;endFill=0;endSize=8;entryX=0;entryY=0.5;entryDx=0;entryDy=0;" parent="WIyWlLk6GJQsqaUBKTNV-1" source="OhfcnGThwX1pYeev4To1-21" target="OhfcnGThwX1pYeev4To1-41" edge="1">
          <mxGeometry relative="1" as="geometry">
            <mxPoint x="449.92" y="570" as="targetPoint" />
          </mxGeometry>
        </mxCell>
        <mxCell id="OhfcnGThwX1pYeev4To1-21" value="Choose random block from working list, attempts2 = 20" style="whiteSpace=wrap;html=1;" parent="WIyWlLk6GJQsqaUBKTNV-1" vertex="1">
          <mxGeometry x="249.92" y="540" width="120" height="60" as="geometry" />
        </mxCell>
        <mxCell id="OhfcnGThwX1pYeev4To1-28" value="" style="edgeStyle=orthogonalEdgeStyle;shape=connector;rounded=0;orthogonalLoop=1;jettySize=auto;html=1;shadow=0;labelBackgroundColor=none;strokeColor=default;strokeWidth=1;align=center;verticalAlign=middle;fontFamily=Helvetica;fontSize=11;fontColor=default;endArrow=block;endFill=0;endSize=8;" parent="WIyWlLk6GJQsqaUBKTNV-1" source="OhfcnGThwX1pYeev4To1-25" target="OhfcnGThwX1pYeev4To1-27" edge="1">
          <mxGeometry relative="1" as="geometry" />
        </mxCell>
        <mxCell id="OhfcnGThwX1pYeev4To1-25" value="Choose a random tile next to that one" style="whiteSpace=wrap;html=1;" parent="WIyWlLk6GJQsqaUBKTNV-1" vertex="1">
          <mxGeometry x="569.92" y="540" width="120" height="60" as="geometry" />
        </mxCell>
        <mxCell id="OhfcnGThwX1pYeev4To1-30" value="" style="edgeStyle=orthogonalEdgeStyle;shape=connector;rounded=0;orthogonalLoop=1;jettySize=auto;html=1;shadow=0;labelBackgroundColor=none;strokeColor=default;strokeWidth=1;align=center;verticalAlign=middle;fontFamily=Helvetica;fontSize=11;fontColor=default;endArrow=block;endFill=0;endSize=8;" parent="WIyWlLk6GJQsqaUBKTNV-1" source="OhfcnGThwX1pYeev4To1-27" target="OhfcnGThwX1pYeev4To1-29" edge="1">
          <mxGeometry relative="1" as="geometry" />
        </mxCell>
        <mxCell id="OhfcnGThwX1pYeev4To1-31" value="Yes" style="edgeLabel;html=1;align=center;verticalAlign=middle;resizable=0;points=[];fontSize=11;fontFamily=Helvetica;fontColor=default;" parent="OhfcnGThwX1pYeev4To1-30" vertex="1" connectable="0">
          <mxGeometry x="-0.2037" y="3" relative="1" as="geometry">
            <mxPoint y="-7" as="offset" />
          </mxGeometry>
        </mxCell>
        <mxCell id="OhfcnGThwX1pYeev4To1-44" value="" style="edgeStyle=orthogonalEdgeStyle;shape=connector;rounded=0;orthogonalLoop=1;jettySize=auto;html=1;shadow=0;labelBackgroundColor=none;strokeColor=default;strokeWidth=1;align=center;verticalAlign=middle;fontFamily=Helvetica;fontSize=11;fontColor=default;endArrow=block;endFill=0;endSize=8;entryX=1;entryY=0.5;entryDx=0;entryDy=0;exitX=0.5;exitY=1;exitDx=0;exitDy=0;" parent="WIyWlLk6GJQsqaUBKTNV-1" source="OhfcnGThwX1pYeev4To1-27" target="OhfcnGThwX1pYeev4To1-43" edge="1">
          <mxGeometry relative="1" as="geometry" />
        </mxCell>
        <mxCell id="OhfcnGThwX1pYeev4To1-45" value="No" style="edgeLabel;html=1;align=center;verticalAlign=middle;resizable=0;points=[];fontSize=11;fontFamily=Helvetica;fontColor=default;" parent="OhfcnGThwX1pYeev4To1-44" vertex="1" connectable="0">
          <mxGeometry x="-0.4963" y="2" relative="1" as="geometry">
            <mxPoint x="-12" y="-28" as="offset" />
          </mxGeometry>
        </mxCell>
        <mxCell id="OhfcnGThwX1pYeev4To1-27" value="Is that tile valid and unallocated?" style="rhombus;whiteSpace=wrap;html=1;" parent="WIyWlLk6GJQsqaUBKTNV-1" vertex="1">
          <mxGeometry x="729.92" y="525" width="140" height="90" as="geometry" />
        </mxCell>
        <mxCell id="OhfcnGThwX1pYeev4To1-33" value="" style="edgeStyle=orthogonalEdgeStyle;shape=connector;rounded=0;orthogonalLoop=1;jettySize=auto;html=1;shadow=0;labelBackgroundColor=none;strokeColor=default;strokeWidth=1;align=center;verticalAlign=middle;fontFamily=Helvetica;fontSize=11;fontColor=default;endArrow=block;endFill=0;endSize=8;entryX=1;entryY=0.5;entryDx=0;entryDy=0;exitX=1;exitY=0.5;exitDx=0;exitDy=0;" parent="WIyWlLk6GJQsqaUBKTNV-1" source="OhfcnGThwX1pYeev4To1-29" target="OhfcnGThwX1pYeev4To1-32" edge="1">
          <mxGeometry relative="1" as="geometry" />
        </mxCell>
        <mxCell id="OhfcnGThwX1pYeev4To1-29" value="Mark tile as allocated and add it to working_list" style="whiteSpace=wrap;html=1;" parent="WIyWlLk6GJQsqaUBKTNV-1" vertex="1">
          <mxGeometry x="939.92" y="540" width="120" height="60" as="geometry" />
        </mxCell>
        <mxCell id="OhfcnGThwX1pYeev4To1-35" style="edgeStyle=orthogonalEdgeStyle;shape=connector;rounded=0;orthogonalLoop=1;jettySize=auto;html=1;exitX=0;exitY=0.5;exitDx=0;exitDy=0;shadow=0;labelBackgroundColor=none;strokeColor=default;strokeWidth=1;align=center;verticalAlign=middle;fontFamily=Helvetica;fontSize=11;fontColor=default;endArrow=block;endFill=0;endSize=8;" parent="WIyWlLk6GJQsqaUBKTNV-1" source="OhfcnGThwX1pYeev4To1-32" edge="1">
          <mxGeometry relative="1" as="geometry">
            <mxPoint x="149.92" y="530" as="targetPoint" />
          </mxGeometry>
        </mxCell>
        <mxCell id="OhfcnGThwX1pYeev4To1-32" value="attempts = attempts -1" style="whiteSpace=wrap;html=1;" parent="WIyWlLk6GJQsqaUBKTNV-1" vertex="1">
          <mxGeometry x="277.92" y="460" width="130" height="40" as="geometry" />
        </mxCell>
        <mxCell id="OhfcnGThwX1pYeev4To1-47" style="edgeStyle=orthogonalEdgeStyle;shape=connector;rounded=0;orthogonalLoop=1;jettySize=auto;html=1;exitX=0.5;exitY=0;exitDx=0;exitDy=0;entryX=1;entryY=0.5;entryDx=0;entryDy=0;shadow=0;labelBackgroundColor=none;strokeColor=default;strokeWidth=1;align=center;verticalAlign=middle;fontFamily=Helvetica;fontSize=11;fontColor=default;endArrow=block;endFill=0;endSize=8;" parent="WIyWlLk6GJQsqaUBKTNV-1" source="OhfcnGThwX1pYeev4To1-41" target="OhfcnGThwX1pYeev4To1-32" edge="1">
          <mxGeometry relative="1" as="geometry" />
        </mxCell>
        <mxCell id="OhfcnGThwX1pYeev4To1-48" value="No" style="edgeLabel;html=1;align=center;verticalAlign=middle;resizable=0;points=[];fontSize=11;fontFamily=Helvetica;fontColor=default;" parent="OhfcnGThwX1pYeev4To1-47" vertex="1" connectable="0">
          <mxGeometry x="-0.4644" y="3" relative="1" as="geometry">
            <mxPoint x="-7" y="7" as="offset" />
          </mxGeometry>
        </mxCell>
        <mxCell id="OhfcnGThwX1pYeev4To1-41" value="attempts2 &amp;gt; 0" style="rhombus;whiteSpace=wrap;html=1;fontFamily=Helvetica;fontSize=11;fontColor=default;" parent="WIyWlLk6GJQsqaUBKTNV-1" vertex="1">
          <mxGeometry x="419.92" y="530" width="80" height="80" as="geometry" />
        </mxCell>
        <mxCell id="OhfcnGThwX1pYeev4To1-46" style="edgeStyle=orthogonalEdgeStyle;shape=connector;rounded=0;orthogonalLoop=1;jettySize=auto;html=1;exitX=0;exitY=0.5;exitDx=0;exitDy=0;entryX=0;entryY=0.5;entryDx=0;entryDy=0;shadow=0;labelBackgroundColor=none;strokeColor=default;strokeWidth=1;align=center;verticalAlign=middle;fontFamily=Helvetica;fontSize=11;fontColor=default;endArrow=block;endFill=0;endSize=8;" parent="WIyWlLk6GJQsqaUBKTNV-1" source="OhfcnGThwX1pYeev4To1-43" target="OhfcnGThwX1pYeev4To1-41" edge="1">
          <mxGeometry relative="1" as="geometry" />
        </mxCell>
        <mxCell id="OhfcnGThwX1pYeev4To1-43" value="attempts2 = attempts2 -1" style="whiteSpace=wrap;html=1;" parent="WIyWlLk6GJQsqaUBKTNV-1" vertex="1">
          <mxGeometry x="509.92" y="700" width="190" height="30" as="geometry" />
        </mxCell>
        <mxCell id="OhfcnGThwX1pYeev4To1-50" value="&lt;font style=&quot;font-size: 18px;&quot;&gt;Algorithm to split grid into multiple blocks&lt;/font&gt;" style="text;html=1;strokeColor=none;fillColor=none;align=center;verticalAlign=middle;whiteSpace=wrap;rounded=0;fontSize=11;fontFamily=Helvetica;fontColor=default;" parent="WIyWlLk6GJQsqaUBKTNV-1" vertex="1">
          <mxGeometry x="569.92" y="80" width="400" height="180" as="geometry" />
        </mxCell>
      </root>
    </mxGraphModel>
  </diagram>
</mxfile>
